<svg width="9" height="9" viewBox="0 0 9 9" fill="none" xmlns="http://www.w3.org/2000/svg">
<path d="M4.06312 0.612755L8.82311 4.3215C8.86618 4.35502 8.90073 4.39647 8.9244 4.44303C8.94807 4.48959 8.96033 4.54017 8.96033 4.59136C8.96033 4.64254 8.94807 4.69313 8.9244 4.73968C8.90073 4.78624 8.86618 4.82769 8.82311 4.86122L4.06312 8.56884C4.04877 8.58004 4.03114 8.58731 4.01232 8.58977C3.99351 8.59223 3.9743 8.58978 3.95699 8.58272C3.93968 8.57565 3.925 8.56427 3.91469 8.54992C3.90438 8.53557 3.89888 8.51887 3.89885 8.5018L3.89885 7.59668C3.89885 7.54528 3.92374 7.49611 3.96729 7.46147L7.10702 5.01542L0.0995652 5.01542C0.0448097 5.01542 9.91515e-06 4.97519 9.913e-06 4.92603L9.88369e-06 4.25557C9.88154e-06 4.2064 0.0448097 4.16618 0.0995652 4.16618L7.10702 4.16618L3.96729 1.72013C3.92374 1.6866 3.89885 1.63744 3.89885 1.58492L3.89885 0.679801C3.89885 0.603816 3.99841 0.562471 4.06312 0.612755Z" fill="white"/>
</svg>
