<svg width="14" height="18" viewBox="0 0 14 18" fill="none" xmlns="http://www.w3.org/2000/svg">
<path d="M7.65166 17.325L0.214438 9.67573C0.147141 9.60658 0.0931693 9.5211 0.0561794 9.42507C0.0191894 9.32904 4.57764e-05 9.22471 4.57764e-05 9.11914C4.57764e-05 9.01358 0.0191894 8.90924 0.0561794 8.81322C0.0931693 8.71719 0.147141 8.6317 0.214438 8.56256L7.65166 0.915564C7.67408 0.892457 7.70163 0.877473 7.73102 0.8724C7.76042 0.867326 7.79043 0.872376 7.81748 0.886948C7.84452 0.901519 7.86746 0.924999 7.88357 0.954589C7.89967 0.984179 7.90826 1.01863 7.90832 1.05385L7.90832 2.92065C7.90832 3.02667 7.86943 3.12808 7.80138 3.19952L2.89573 8.24451L13.8445 8.24451C13.93 8.24451 14 8.32748 14 8.42889V9.8117C14 9.91311 13.93 9.99608 13.8445 9.99608L2.89573 9.99608L7.80138 15.0411C7.86943 15.1102 7.90832 15.2116 7.90832 15.3199V17.1867C7.90832 17.3435 7.75277 17.4287 7.65166 17.325Z" fill="#616161"/>
</svg>
