<svg width="14" height="18" viewBox="0 0 14 18" fill="none" xmlns="http://www.w3.org/2000/svg">
<path d="M6.34838 0.915327L13.7856 8.56463C13.8529 8.63377 13.9069 8.71926 13.9439 8.81529C13.9809 8.91132 14 9.01565 14 9.12121C14 9.22678 13.9809 9.33111 13.9439 9.42714C13.9069 9.52317 13.8529 9.60865 13.7856 9.6778L6.34839 17.3248C6.32597 17.3479 6.29842 17.3629 6.26902 17.368C6.23962 17.373 6.20961 17.368 6.18257 17.3534C6.15552 17.3388 6.13258 17.3154 6.11648 17.2858C6.10037 17.2562 6.09178 17.2217 6.09173 17.1865L6.09173 15.3197C6.09173 15.2137 6.13062 15.1123 6.19867 15.0408L11.1043 9.99585L0.15556 9.99585C0.0700078 9.99585 1.01576e-05 9.91288 1.0153e-05 9.81147L1.00913e-05 8.42865C1.00868e-05 8.32724 0.0700077 8.24428 0.15556 8.24428L11.1043 8.24428L6.19867 3.19928C6.13061 3.13014 6.09173 3.02874 6.09173 2.92042L6.09173 1.05361C6.09173 0.896891 6.24728 0.811616 6.34838 0.915327Z" fill="#616161"/>
</svg>
